<svg xmlns="http://www.w3.org/2000/svg" version="1.1" xmlns:xlink="http://www.w3.org/1999/xlink" xmlns:svgjs="http://svgjs.dev/svgjs" width="1000" height="623" viewBox="0 0 1000 623"><g transform="matrix(1,0,0,1,-0.6060606060606233,0.2522267206477409)"><svg viewBox="0 0 396 247" data-background-color="#d9bca9" preserveAspectRatio="xMidYMid meet" height="623" width="1000" xmlns="http://www.w3.org/2000/svg" xmlns:xlink="http://www.w3.org/1999/xlink"><g id="tight-bounds" transform="matrix(1,0,0,1,0.2400000000000091,-0.09999999999999432)"><svg viewBox="0 0 395.52 247.2" height="247.2" width="395.52"><g><svg></svg></g><g><svg viewBox="0 0 395.52 247.2" height="247.2" width="395.52"><g transform="matrix(1,0,0,1,39.55199999999999,100.33942689486551)"><svg viewBox="0 0 316.416 46.52114621026895" height="46.52114621026895" width="316.416"><g><svg viewBox="0 0 316.416 46.52114621026895" height="46.52114621026895" width="316.416"><g><svg viewBox="0 0 316.416 46.52114621026895" height="46.52114621026895" width="316.416"><g id="textblocktransform"><svg viewBox="0 0 316.416 46.52114621026895" height="46.52114621026895" width="316.416" id="textblock"><g><svg viewBox="0 0 316.416 46.52114621026895" height="46.52114621026895" width="316.416"><g transform="matrix(1,0,0,1,0,0)"><svg width="316.416" viewBox="3.5 -34.6 306.72 45.1" height="46.52114621026895" data-palette-color="#000000"><path d="M15-28.7L15-7.5Q15-3.6 13.55-1.8 12.1 0 9.15 0L9.15 0Q6.25 0 4.88-1.55 3.5-3.1 3.5-7.1L3.5-7.1 3.5-28.25Q3.5-34.25 9.15-34.25L9.15-34.25Q12.05-34.25 13.53-33.15 15-32.05 15-28.7L15-28.7ZM35.9-4.15L35.85-13.45Q35.85-16.25 33.65-16.25L33.65-16.25Q32.6-16.25 31.92-15.38 31.25-14.5 31.15-13.05L31.15-13.05 31.15-5.35Q31.15-2.3 29.9-1.15 28.65 0 25.5 0L25.5 0Q22.55 0 21.47-1.38 20.4-2.75 20.4-5.9L20.4-5.9 20.4-18.2Q20.4-20.75 21.77-22.3 23.15-23.85 25.45-23.85L25.45-23.85Q27.35-23.85 28.65-23.3 29.95-22.75 30.6-21.4L30.6-21.4Q34.5-23.95 40.1-23.95L40.1-23.95Q43.65-23.95 45.22-21.15 46.8-18.35 46.8-11.95L46.8-11.95Q46.8-8.8 46.65-6.83 46.5-4.85 46.17-3.43 45.85-2 45.15-1.3 44.45-0.6 43.52-0.3 42.6 0 41.15 0L41.15 0Q38.35 0 37.12-1.05 35.9-2.1 35.9-4.15L35.9-4.15ZM64.95-26.3L64.95-26.3Q63.9-25.45 63.9-22.35L63.9-22.35Q67.25-22.35 68.55-21.73 69.84-21.1 69.84-19L69.84-19Q69.84-17.3 68.45-16.78 67.05-16.25 63.9-16.25L63.9-16.25 63.9-7.5Q63.9-3.25 62.57-1.63 61.25 0 58.4 0L58.4 0Q55.6 0 54.3-1.58 53-3.15 53-7.15L53-7.15 53.05-16.25Q49.35-16.3 49.35-19.15L49.35-19.15Q49.35-22.1 53.1-22.3L53.1-22.3Q53.15-28.75 54.97-31.48 56.8-34.2 62-34.2L62-34.2Q66.15-34.2 68.47-32.5 70.8-30.8 70.8-29.05L70.8-29.05Q70.8-28.3 70.17-27.73 69.55-27.15 68.4-27.15L68.4-27.15Q65.95-27.15 64.95-26.3ZM73.64-30.8L73.64-30.8Q73.64-32.45 75.07-33.52 76.49-34.6 79.09-34.6L79.09-34.6Q84.54-34.6 84.54-30.8L84.54-30.8Q84.54-28.7 83.17-27.85 81.79-27 79.09-27L79.09-27Q76.74-27 75.19-27.9 73.64-28.8 73.64-30.8ZM84.49-18.35L84.49-5.35Q84.49-2.35 83.24-1.18 81.99 0 78.84 0L78.84 0Q75.89 0 74.82-1.38 73.74-2.75 73.74-5.9L73.74-5.9 73.74-18.2Q73.74-20.75 75.12-22.3 76.49-23.85 78.79-23.85L78.79-23.85Q81.49-23.85 82.99-22.68 84.49-21.5 84.49-18.35L84.49-18.35ZM104.44-4.15L104.39-13.45Q104.39-16.25 102.19-16.25L102.19-16.25Q101.14-16.25 100.47-15.38 99.79-14.5 99.69-13.05L99.69-13.05 99.69-5.35Q99.69-2.3 98.44-1.15 97.19 0 94.04 0L94.04 0Q91.09 0 90.02-1.38 88.94-2.75 88.94-5.9L88.94-5.9 88.94-18.2Q88.94-20.75 90.32-22.3 91.69-23.85 93.99-23.85L93.99-23.85Q95.89-23.85 97.19-23.3 98.49-22.75 99.14-21.4L99.14-21.4Q103.04-23.95 108.64-23.95L108.64-23.95Q112.19-23.95 113.77-21.15 115.34-18.35 115.34-11.95L115.34-11.95Q115.34-8.8 115.19-6.83 115.04-4.85 114.72-3.43 114.39-2 113.69-1.3 112.99-0.6 112.07-0.3 111.14 0 109.69 0L109.69 0Q106.89 0 105.67-1.05 104.44-2.1 104.44-4.15L104.44-4.15ZM119.69-30.8L119.69-30.8Q119.69-32.45 121.11-33.52 122.54-34.6 125.14-34.6L125.14-34.6Q130.59-34.6 130.59-30.8L130.59-30.8Q130.59-28.7 129.21-27.85 127.84-27 125.14-27L125.14-27Q122.79-27 121.24-27.9 119.69-28.8 119.69-30.8ZM130.54-18.35L130.54-5.35Q130.54-2.35 129.29-1.18 128.04 0 124.89 0L124.89 0Q121.94 0 120.86-1.38 119.79-2.75 119.79-5.9L119.79-5.9 119.79-18.2Q119.79-20.75 121.16-22.3 122.54-23.85 124.84-23.85L124.84-23.85Q127.54-23.85 129.04-22.68 130.54-21.5 130.54-18.35L130.54-18.35ZM137.59-10.7L137.59-10.7 137.59-16.6Q136.34-16.65 135.59-17.03 134.84-17.4 134.51-18 134.19-18.6 134.19-19.5L134.19-19.5Q134.19-22.35 137.64-22.6L137.64-22.6 137.64-27.25Q137.64-29.15 140.39-30.68 143.14-32.2 145.84-32.2L145.84-32.2Q147.49-32.2 147.99-31.25 148.49-30.3 148.49-28.4L148.49-28.4 148.54-22.65 149.89-22.65Q152.64-22.65 153.66-21.93 154.69-21.2 154.69-19.3L154.69-19.3Q154.69-18.5 154.39-17.95 154.09-17.4 153.41-17.1 152.74-16.8 151.79-16.68 150.84-16.55 149.44-16.55L149.44-16.55 148.54-16.55 148.54-11.05Q148.54-10.25 148.61-9.73 148.69-9.2 148.84-8.9 148.99-8.6 149.26-8.5 149.54-8.4 149.94-8.4L149.94-8.4Q150.54-8.4 150.94-8.83 151.34-9.25 151.56-9.78 151.79-10.3 152.16-10.73 152.54-11.15 153.04-11.15L153.04-11.15Q154.19-11.15 154.81-10.6 155.44-10.05 155.44-9.25L155.44-9.25Q155.44-7.9 154.91-6.35 154.39-4.8 153.39-3.35 152.39-1.9 150.61-0.95 148.84 0 146.64 0L146.64 0Q141.69 0 139.64-2.5 137.59-5 137.59-10.7ZM186.03-14.1L186.03-14.1Q186.03-5.55 185.53-2.15L185.53-2.15Q185.13 0.9 184.28 3.13 183.43 5.35 181.88 7.08 180.33 8.8 177.93 9.65 175.53 10.5 172.23 10.5L172.23 10.5Q169.58 10.5 167.31 9.73 165.03 8.95 163.71 7.83 162.38 6.7 161.63 5.6 160.88 4.5 160.88 3.7 160.88 2.9 161.41 2.23 161.93 1.55 162.83 1.55L162.83 1.55Q163.48 1.55 164.36 1.95 165.23 2.35 166.03 2.85 166.83 3.35 167.93 3.75 169.03 4.15 170.08 4.15L170.08 4.15Q172.78 4.15 173.91 2.8 175.03 1.45 175.03-1.05L175.03-1.05Q174.18-0.7 173.38-0.45 172.58-0.2 171.83-0.05 171.08 0.1 170.41 0.15 169.73 0.2 169.08 0.2L169.08 0.2Q166.13 0.2 164.03-1.45 161.93-3.1 161.01-5.53 160.08-7.95 160.08-10.75L160.08-10.75Q160.08-13.55 160.16-15.5 160.23-17.45 160.48-18.98 160.73-20.5 161.06-21.4 161.38-22.3 161.98-22.88 162.58-23.45 163.33-23.65 164.08-23.85 165.13-23.85L165.13-23.85Q168.28-23.85 169.56-22.78 170.83-21.7 170.83-19.4L170.83-19.4 170.88-11.35Q170.88-10.55 170.88-10.18 170.88-9.8 170.96-9.25 171.03-8.7 171.16-8.45 171.28-8.2 171.51-7.93 171.73-7.65 172.11-7.55 172.48-7.45 173.03-7.45L173.03-7.45Q174.53-7.45 174.91-8.28 175.28-9.1 175.28-11.3L175.28-11.3 175.33-19.4Q175.33-20.95 175.86-21.9 176.38-22.85 177.63-23.35 178.88-23.85 181.03-23.85L181.03-23.85Q182.33-23.85 183.26-23.43 184.18-23 184.73-22.33 185.28-21.65 185.56-20.33 185.83-19 185.93-17.65 186.03-16.3 186.03-14.1ZM210.83 0L197.78 0Q195.48-0.05 194.08-0.73 192.68-1.4 191.98-2.95 191.28-4.5 191.28-7.1L191.28-7.1 191.28-28.25Q191.28-30.9 192.83-32.58 194.38-34.25 196.93-34.25L196.93-34.25Q199.93-34.25 201.36-33.15 202.78-32.05 202.78-28.7L202.78-28.7 202.78-8.65 211.33-8.65Q214.23-8.65 215.41-7.8 216.58-6.95 216.58-4.3L216.58-4.3Q216.58-1.6 215.23-0.8 213.88 0 210.83 0L210.83 0ZM236.28-11.85L236.28-11.85Q236.28-14.45 235.63-16.43 234.98-18.4 233.73-18.4L233.73-18.4Q232.88-18.4 232.23-17.4 231.58-16.4 231.28-14.95 230.98-13.5 230.98-11.85L230.98-11.85Q230.98-9.3 231.68-7.38 232.38-5.45 233.68-5.45 234.98-5.45 235.63-7.35 236.28-9.25 236.28-11.85ZM233.68 0.35L233.68 0.35Q229.78 0.35 226.65-1.05 223.53-2.45 221.65-5.25 219.78-8.05 219.78-11.8L219.78-11.8Q219.78-17.5 223.68-20.85 227.58-24.2 233.68-24.2 239.78-24.2 243.63-20.85 247.48-17.5 247.48-11.8L247.48-11.8Q247.48-6.15 243.55-2.9 239.63 0.35 233.68 0.35ZM267.83-11.85L267.83-11.85Q267.83-14.45 267.18-16.43 266.53-18.4 265.28-18.4L265.28-18.4Q264.43-18.4 263.78-17.4 263.13-16.4 262.83-14.95 262.53-13.5 262.53-11.85L262.53-11.85Q262.53-9.3 263.23-7.38 263.93-5.45 265.23-5.45 266.53-5.45 267.18-7.35 267.83-9.25 267.83-11.85ZM265.23 0.35L265.23 0.35Q261.33 0.35 258.2-1.05 255.08-2.45 253.2-5.25 251.33-8.05 251.33-11.8L251.33-11.8Q251.33-17.5 255.23-20.85 259.13-24.2 265.23-24.2 271.33-24.2 275.18-20.85 279.03-17.5 279.03-11.8L279.03-11.8Q279.03-6.15 275.1-2.9 271.18 0.35 265.23 0.35ZM294.27-1.4L294.27 2.9Q294.27 6.95 292.92 8.68 291.57 10.4 288.77 10.4L288.77 10.4Q285.97 10.4 284.67 8.83 283.37 7.25 283.37 3.25L283.37 3.25 283.27-17.85Q283.27-20.95 284.77-22.4 286.27-23.85 288.77-23.85L288.77-23.85Q290.72-23.85 291.92-23.38 293.12-22.9 293.72-21.5L293.72-21.5Q297.17-24.2 301.12-24.2L301.12-24.2Q305.12-24.2 307.67-20.85 310.22-17.5 310.22-11.75L310.22-11.75Q310.22-6.15 307.62-2.93 305.02 0.3 301.07 0.3L301.07 0.3Q297.27 0.3 294.27-1.4L294.27-1.4ZM294.27-16.55L294.27-7.25Q295.12-5.85 296.52-5.85L296.52-5.85Q297.87-5.85 298.62-7.65 299.37-9.45 299.37-11.75L299.37-11.75Q299.37-14.2 298.57-16.1 297.77-18 296.47-18L296.47-18Q295.12-18 294.27-16.55L294.27-16.55Z" opacity="1" transform="matrix(1,0,0,1,0,0)" fill="#000000" class="undefined-text-0" data-fill-palette-color="primary" id="text-0"></path></svg></g></svg></g></svg></g></svg></g></svg></g></svg></g><g mask="url(#64b2c81a-7f26-4004-899f-478664165089)"><g transform="matrix(4.094602877085319, 0, 0, 4.094602877085319, 1, 30.06698647874005)"><svg xmlns="http://www.w3.org/2000/svg" xmlns:xlink="http://www.w3.org/1999/xlink" version="1.1" x="0" y="0" viewBox="1.9 26.976999999999997 96.10700031552784 45.686" enable-background="new 0 0 100 100" xml:space="preserve" height="45.686" width="96.10700031552784" class="icon-none" data-fill-palette-color="accent" id="none"><path d="M45.264 60.825c-0.2 0.077-0.408 0.114-0.616 0.114-0.418 0-0.831-0.152-1.151-0.445-0.479-0.436-0.67-1.104-0.494-1.728l1.221-4.327c-5.317 7.252-10.752 11.975-19.48 11.975-9.15 0-16.595-7.445-16.595-16.595 0-3.267 0.952-6.314 2.588-8.885l0.391 0.784c0.265 0.53 0.785 0.885 1.375 0.939 0.051 0.004 0.103 0.007 0.155 0.007 0.534 0 1.042-0.251 1.366-0.683l7.746-10.31c0.389-0.518 0.452-1.211 0.163-1.79s-0.881-0.945-1.528-0.946L7.508 28.926c0 0 0 0-0.001 0-0.592 0-1.142 0.306-1.453 0.809-0.312 0.504-0.34 1.133-0.076 1.663l1.651 3.309C4.066 38.737 1.9 44.03 1.9 49.819c0 12.595 10.247 22.843 22.843 22.843 6.753 0 12.588-2.274 17.839-6.953 1.918-1.71 3.998-3.92 5.638-6.008l-0.01-0.014L45.264 60.825z" fill="#000000" data-fill-palette-color="accent"></path><path d="M68.594 67.006L64.1 55.047c-0.209-0.555-0.689-0.961-1.271-1.076-0.582-0.113-1.181 0.081-1.583 0.516l-1.85 1.994c-1.521-2.051-3.002-4.308-4.526-6.66l0.001-0.001-3.747-5.692c-2.59-3.79-5.313-7.321-8.541-10.197-5.251-4.679-11.086-6.954-17.839-6.954-0.288 0-0.573 0.007-0.858 0.018 0.413 0.396 0.763 0.866 1.029 1.399 0.777 1.558 0.697 3.364-0.183 4.833 0.004 0 0.008 0 0.012 0 10.468 0 16.2 6.789 22.67 16.595l3.71 5.692c1.273 1.928 2.581 3.824 3.964 5.617l-1.684 1.814c-0.402 0.435-0.553 1.047-0.395 1.617s0.6 1.02 1.169 1.186l12.378 3.615c0.158 0.045 0.32 0.068 0.479 0.068 0.008 0 0.016 0 0.023 0 0.936-0.01 1.69-0.771 1.69-1.709C68.75 67.466 68.693 67.225 68.594 67.006z" fill="#000000" data-fill-palette-color="accent"></path><path d="M91.317 33.667c-4.315-4.314-10.052-6.69-16.152-6.69-5.321 0-9.577 1.732-13.19 4.461l-1.949-1.775c-0.438-0.398-1.051-0.542-1.621-0.379-0.569 0.163-1.014 0.609-1.175 1.179l-3.503 12.41c-0.176 0.624 0.016 1.292 0.494 1.728 0.32 0.292 0.732 0.446 1.152 0.446 0.207 0 0.415-0.038 0.615-0.115l12.03-4.646c0.552-0.213 0.955-0.698 1.063-1.28 0.109-0.582-0.091-1.179-0.529-1.578l-1.838-1.674c2.447-1.597 5.197-2.529 8.45-2.529 9.149 0 16.595 7.444 16.595 16.595 0 9.149-7.445 16.595-16.595 16.595-1.187 0-2.305-0.126-3.366-0.361 0.188 0.535 0.283 1.094 0.283 1.668 0 1.794-0.953 3.38-2.378 4.273 1.69 0.433 3.503 0.668 5.461 0.668 12.595 0 22.843-10.248 22.843-22.843C98.008 43.717 95.632 37.981 91.317 33.667z" fill="#000000" data-fill-palette-color="accent"></path></svg></g></g></svg></g><defs><mask id="64b2c81a-7f26-4004-899f-478664165089"><rect width="640" height="400" fill="white"></rect><rect width="348.05760000000004" height="68.48619843573985" fill="black" x="145.97119999999998" y="165.75690078213006" id="transform-me" transform="matrix(1,0,0,1,-122.24000000000001,-76.4)"></rect></mask></defs></svg><rect width="395.52" height="247.2" fill="none" stroke="none" visibility="hidden"></rect></g></svg></g></svg>